<?xml version="1.0" standalone="no"?>
<!DOCTYPE svg PUBLIC "-//W3C//DTD SVG 20010904//EN"
 "http://www.w3.org/TR/2001/REC-SVG-20010904/DTD/svg10.dtd">
<svg version="1.0" xmlns="http://www.w3.org/2000/svg"
 width="1024.000000pt" height="1024.000000pt" viewBox="0 0 1024.000000 1024.000000"
 preserveAspectRatio="xMidYMid meet">
<metadata>
Created by potrace 1.11, written by Peter Selinger 2001-2013
</metadata>
<g transform="translate(0.000000,1024.000000) scale(0.100000,-0.100000)"
fill="#000000" stroke="none">
<path d="M4692 9760 c-53 -11 -104 -42 -131 -78 -19 -26 -20 -26 -21 -5 0 34
-27 54 -63 49 -18 -3 -58 -8 -90 -11 -71 -8 -97 -30 -97 -80 0 -43 29 -75 68
-75 l29 0 12 -132 c7 -73 15 -150 18 -170 5 -34 3 -38 -16 -38 -52 0 -80 -79
-45 -128 13 -19 24 -22 82 -22 112 1 211 16 232 35 27 25 27 88 0 115 -11 11
-33 20 -48 20 l-28 0 -11 115 c-7 79 -8 128 -1 155 20 77 113 123 166 83 41
-30 50 -58 64 -199 l14 -131 -31 -9 c-41 -12 -58 -49 -44 -98 7 -24 18 -40 34
-46 30 -11 270 13 290 30 10 8 15 30 15 61 0 52 -23 79 -66 79 -25 0 -28 14
-39 150 -16 196 -47 275 -126 315 -35 19 -115 26 -167 15z"/>
<path d="M5428 9734 c-26 -8 -54 -24 -63 -36 -36 -52 -4 -118 58 -118 17 0 64
9 102 20 88 25 131 25 173 0 35 -22 52 -54 52 -101 0 -33 -3 -34 -85 -14 -33
8 -99 15 -146 15 -181 0 -268 -69 -269 -213 0 -137 92 -208 270 -209 60 0 103
6 145 20 33 12 61 17 63 11 13 -35 41 -51 109 -61 63 -9 76 -8 98 6 23 15 26
23 23 69 -3 48 -6 53 -35 67 -38 17 -38 17 -18 160 30 218 14 296 -70 345 -86
51 -302 71 -407 39z m234 -360 l70 -16 -6 -52 c-8 -56 -21 -71 -76 -86 -139
-39 -257 38 -189 124 36 45 94 54 201 30z"/>
<path d="M6281 9574 c-12 -15 -21 -41 -21 -60 0 -32 5 -40 42 -67 14 -11 11
-26 -40 -164 l-55 -153 -36 0 c-42 0 -54 -7 -70 -37 -19 -37 -14 -81 13 -98
39 -26 214 -85 251 -85 42 0 65 29 65 83 0 32 -5 41 -30 55 -16 9 -29 19 -27
22 1 3 19 54 41 113 31 87 46 114 77 142 44 39 89 46 139 20 62 -32 63 -61 7
-225 l-43 -125 -41 -3 c-46 -3 -70 -24 -79 -69 -9 -47 25 -75 140 -117 119
-43 159 -46 181 -12 26 40 22 86 -9 113 l-28 24 52 150 c47 137 52 158 48 220
-3 49 -9 76 -24 96 -34 45 -95 82 -157 95 -56 12 -72 10 -160 -19 -15 -5 -16
-2 -7 23 14 36 3 45 -99 79 -95 31 -105 31 -130 -1z"/>
<path d="M2844 9180 c-101 -35 -232 -131 -276 -199 -37 -58 -37 -102 -1 -131
47 -37 80 -17 182 110 71 89 139 104 199 44 l36 -36 -96 -49 c-202 -104 -277
-233 -214 -364 40 -80 82 -109 167 -113 56 -4 77 0 123 21 65 30 147 104 183
165 21 36 29 42 47 37 39 -13 66 -7 121 26 67 40 84 73 60 118 -21 42 -56 58
-91 42 -15 -6 -28 -10 -29 -9 -1 2 -32 55 -70 118 -87 147 -128 198 -179 221
-51 23 -96 23 -162 -1z m222 -362 l27 -42 -23 -43 c-27 -51 -105 -112 -152
-119 -24 -4 -40 0 -61 16 -46 37 -31 107 33 158 31 24 121 71 137 72 7 0 25
-19 39 -42z"/>
<path d="M7213 9112 c-68 -24 -111 -59 -156 -124 -51 -74 -72 -162 -58 -240 6
-32 20 -79 32 -103 34 -68 122 -149 208 -192 72 -36 81 -38 171 -38 78 0 104
4 147 24 64 28 126 94 161 169 38 80 37 192 -1 275 -36 78 -117 156 -212 203
-66 32 -88 38 -158 41 -61 3 -95 -1 -134 -15z m245 -173 c92 -45 127 -155 80
-249 -34 -65 -86 -102 -152 -108 -65 -5 -111 14 -160 68 -42 47 -54 97 -37
160 33 125 155 184 269 129z"/>
<path d="M8186 8819 c-30 -35 -32 -56 -10 -88 17 -23 15 -25 -197 -237 -207
-207 -214 -213 -236 -199 -33 22 -71 18 -98 -10 -38 -37 -32 -68 27 -136 58
-67 89 -81 118 -54 20 18 20 17 20 -24 0 -57 21 -102 74 -159 54 -58 116 -90
199 -105 131 -22 265 52 338 185 32 59 34 69 34 153 0 78 -4 97 -27 140 -33
64 -113 139 -164 154 -21 7 -45 15 -53 17 -10 3 21 41 92 112 67 67 107 115
107 128 0 13 -27 47 -69 87 -82 79 -113 87 -155 36z m22 -509 c62 -38 89 -123
63 -193 -26 -67 -120 -136 -186 -137 -51 0 -107 39 -134 93 -29 58 -24 96 22
163 57 85 162 118 235 74z"/>
<path d="M2195 8731 c-16 -10 -52 -42 -80 -70 -44 -45 -48 -54 -37 -71 6 -11
12 -21 12 -24 0 -2 -22 -6 -49 -10 -87 -11 -195 -113 -230 -215 -6 -19 -11
-66 -11 -106 0 -60 5 -82 30 -132 59 -119 162 -186 285 -187 114 0 217 58 283
162 17 26 34 60 37 75 9 36 22 31 62 -27 59 -86 40 -143 -82 -243 -32 -26 -69
-58 -82 -70 -30 -29 -30 -73 0 -101 53 -50 135 -14 254 112 88 92 118 151 118
231 0 89 -30 133 -236 349 -130 137 -178 194 -173 205 4 9 9 32 12 52 3 30 -1
40 -28 62 -37 32 -46 33 -85 8z m28 -330 c57 -37 87 -91 87 -161 0 -43 -5 -55
-36 -89 -40 -45 -90 -66 -138 -57 -48 9 -112 59 -136 105 -77 152 78 293 223
202z"/>
<path d="M1423 7891 c-80 -37 -142 -155 -130 -246 6 -42 -3 -59 -18 -35 -3 6
-15 10 -25 10 -26 0 -120 -139 -120 -178 0 -61 88 -96 134 -53 21 19 22 18
158 -73 107 -72 135 -95 128 -106 -19 -30 -11 -68 21 -94 33 -28 65 -33 90
-13 32 25 149 212 149 239 0 31 -50 78 -84 78 -12 0 -32 -9 -44 -20 -12 -11
-24 -20 -27 -20 -3 0 -49 29 -104 65 -144 97 -173 164 -105 245 45 53 94 41
242 -58 l89 -61 -5 -50 c-4 -48 -3 -51 29 -70 44 -27 71 -26 96 2 38 41 143
209 143 229 0 25 -41 65 -75 74 -19 5 -35 1 -55 -15 -16 -11 -32 -21 -35 -21
-3 0 -52 31 -108 69 -137 92 -181 112 -246 118 -42 3 -67 -1 -98 -16z"/>
<path d="M8706 7849 c-31 -24 -35 -72 -10 -107 9 -13 14 -25 13 -26 -32 -27
-284 -175 -289 -169 -3 4 -18 25 -34 46 -29 39 -55 46 -99 26 -36 -16 -52 -51
-40 -86 12 -32 213 -356 243 -390 26 -30 78 -31 108 -3 38 35 34 63 -22 155
-24 39 -46 75 -50 82 -4 7 30 34 90 71 l96 60 51 -15 c65 -19 117 -45 139 -69
9 -11 19 -45 23 -77 10 -81 41 -117 100 -117 80 0 122 65 96 150 -14 47 -91
134 -140 160 -20 10 -63 26 -96 35 l-60 18 25 16 c13 9 36 26 50 38 l25 21
-19 34 c-11 18 -39 63 -63 101 -39 61 -46 67 -77 67 -19 0 -45 -9 -60 -21z"/>
<path d="M3292 7625 c-231 -50 -334 -205 -319 -475 15 -262 150 -395 415 -408
l102 -5 0 -1527 0 -1527 -92 -6 c-150 -11 -225 -37 -300 -105 -80 -72 -116
-158 -125 -298 -10 -154 25 -285 96 -367 18 -20 61 -50 95 -67 117 -58 140
-59 1041 -60 1152 0 1407 17 1756 116 528 150 966 526 1224 1049 121 245 187
452 234 735 56 335 56 735 0 1080 -93 575 -352 1069 -724 1379 -263 219 -542
351 -894 421 -329 65 -630 80 -1651 79 -633 0 -808 -3 -858 -14z m1863 -889
c179 -29 301 -65 441 -131 434 -204 661 -603 693 -1223 45 -857 -227 -1395
-809 -1600 -204 -71 -422 -102 -727 -102 l-203 0 0 1534 c0 1218 3 1536 13
1540 26 12 493 -2 592 -18z"/>
<path d="M1070 7091 c-159 -52 -263 -206 -264 -391 -1 -138 65 -249 182 -307
50 -25 68 -28 152 -28 83 0 101 3 145 27 28 14 72 49 99 77 140 151 180 474
64 522 -20 8 -38 9 -56 3 l-27 -9 -6 -140 c-6 -150 -16 -186 -66 -245 -40 -48
-142 -88 -165 -65 -3 3 35 109 84 236 52 135 88 241 86 257 -4 39 -55 64 -136
68 -37 2 -78 0 -92 -5z m80 -165 c0 -2 -21 -57 -46 -123 -25 -65 -55 -142 -66
-170 -11 -29 -24 -53 -29 -53 -5 0 -23 21 -40 48 -27 41 -30 53 -25 100 10
107 91 201 174 202 17 0 32 -2 32 -4z"/>
<path d="M9173 7055 c-34 -14 -50 -48 -40 -85 4 -16 -35 -58 -186 -200 l-191
-180 -56 6 c-96 9 -93 7 -125 91 l-30 78 -45 3 c-52 3 -90 -23 -90 -62 0 -24
101 -319 126 -368 16 -31 43 -42 83 -33 55 12 71 50 50 125 -3 11 4 14 26 12
90 -7 638 -62 639 -64 32 -54 37 -58 77 -58 56 0 93 37 83 83 -10 47 -73 219
-86 234 -15 18 -79 16 -106 -3 -17 -11 -22 -25 -22 -56 l0 -40 -92 7 c-51 4
-122 10 -157 14 l-64 6 113 104 113 104 19 -27 c23 -31 79 -36 116 -10 33 23
28 73 -18 199 -49 137 -66 151 -137 120z"/>
<path d="M1153 6155 c-13 -9 -23 -25 -23 -35 0 -10 -4 -21 -8 -24 -4 -2 -64 4
-132 15 -177 27 -234 25 -300 -8 -73 -38 -103 -93 -104 -196 -1 -61 3 -79 25
-119 l27 -47 -31 -3 c-36 -4 -43 -22 -53 -138 -6 -66 -4 -77 12 -91 47 -41
121 -28 131 23 7 33 -5 33 188 5 133 -20 150 -25 153 -42 9 -59 13 -64 51 -75
45 -12 85 -1 95 26 9 24 36 208 36 247 0 45 -26 67 -78 67 -44 0 -72 -19 -72
-51 0 -10 -4 -19 -10 -19 -39 0 -230 35 -251 46 -81 41 -104 131 -48 186 30
30 31 31 107 25 42 -3 112 -11 155 -17 l77 -12 0 -34 c0 -41 29 -64 82 -64 51
0 63 21 82 146 21 130 20 157 -3 178 -27 25 -82 30 -108 11z"/>
<path d="M9174 6060 c-143 -57 -216 -200 -185 -362 7 -35 23 -83 37 -107 13
-24 24 -47 24 -52 0 -15 -109 -10 -140 6 -46 24 -61 66 -75 208 -13 143 -20
157 -80 157 -64 0 -85 -63 -73 -214 18 -219 92 -322 241 -333 35 -3 158 6 287
21 302 35 284 35 288 11 11 -56 91 -76 133 -34 19 19 20 28 14 102 -9 101 -18
127 -45 127 -20 0 -20 0 2 43 17 33 22 58 21 117 -2 135 -58 237 -164 295 -46
25 -67 30 -144 32 -72 3 -100 -1 -141 -17z m231 -200 c44 -28 65 -62 71 -118
7 -63 -24 -117 -86 -150 -113 -60 -260 13 -260 130 0 129 160 209 275 138z"/>
<path d="M1013 5248 c-54 -14 -54 -45 1 -152 25 -50 51 -115 56 -143 18 -101
-16 -190 -89 -231 l-40 -23 -5 33 c-3 18 -13 132 -21 253 -20 267 -21 270
-104 262 -152 -13 -260 -138 -269 -312 -9 -176 66 -322 198 -388 37 -18 62
-22 145 -22 89 0 106 3 150 27 28 14 70 47 93 72 61 66 84 124 90 228 8 150
-27 280 -97 360 -35 40 -60 48 -108 36z m-200 -385 c14 -183 13 -186 -53 -140
-63 42 -75 69 -75 165 0 99 17 136 77 165 39 19 33 41 51 -190z"/>
<path d="M9208 5130 c-73 -22 -146 -91 -180 -169 -29 -66 -35 -173 -14 -245
10 -32 16 -60 14 -61 -7 -7 -104 16 -126 31 -30 19 -52 71 -52 121 0 21 7 78
17 126 19 102 13 136 -30 151 -66 24 -110 -26 -132 -151 -30 -163 -8 -297 58
-361 56 -55 109 -68 400 -98 l267 -28 0 -28 c0 -41 32 -68 79 -68 65 0 79 30
84 174 2 55 0 60 -21 65 l-24 6 22 20 c68 61 91 219 50 329 -30 79 -96 146
-173 175 -61 22 -183 28 -239 11z m163 -191 c75 -25 124 -96 116 -167 -6 -53
-31 -89 -83 -120 -32 -19 -49 -22 -96 -18 -107 8 -176 80 -165 174 6 56 32 91
87 120 49 24 90 28 141 11z"/>
<path d="M1190 4353 c-29 -11 -50 -36 -50 -62 0 -14 12 -61 25 -105 14 -43 24
-81 21 -83 -2 -3 -114 -38 -248 -79 -483 -148 -468 -143 -468 -165 0 -34 71
-252 88 -271 19 -23 80 -23 111 -2 24 17 25 40 5 139 l-6 30 287 88 c158 49
288 87 289 85 2 -2 15 -42 30 -90 36 -117 54 -133 123 -107 34 13 43 25 43 65
0 28 -122 443 -151 517 -17 41 -55 56 -99 40z"/>
<path d="M9003 4206 c-125 -40 -211 -145 -254 -314 -45 -178 -8 -322 84 -322
54 0 61 16 53 133 -11 163 29 274 114 317 32 17 110 28 110 17 0 -2 -34 -105
-76 -228 -74 -220 -85 -264 -69 -289 14 -22 74 -40 137 -40 161 0 287 124 330
323 22 102 -14 240 -80 311 -84 89 -233 128 -349 92z m263 -241 c83 -109 -6
-315 -136 -315 -16 0 -30 1 -30 3 0 2 80 234 115 335 7 21 23 14 51 -23z"/>
<path d="M1365 3565 c-14 -13 -25 -36 -25 -50 0 -22 9 -30 53 -50 102 -45 135
-120 81 -184 -54 -64 -55 -64 -135 74 -40 69 -81 127 -91 131 -46 14 -177 -89
-214 -171 -57 -121 -5 -259 112 -300 l39 -13 -3 -65 c-4 -74 14 -125 67 -192
85 -105 211 -115 211 -17 0 24 -9 38 -41 64 -78 62 -99 90 -99 129 0 27 8 45
29 68 16 17 34 31 40 31 5 0 26 -28 47 -62 79 -136 131 -178 221 -178 83 1
175 61 202 133 45 119 -59 276 -211 321 -15 4 -15 8 -1 48 37 106 -28 234
-147 287 -62 28 -105 27 -135 -4z m-90 -326 c19 -33 33 -64 30 -69 -2 -4 -25
-13 -50 -19 -61 -15 -104 6 -105 51 0 18 66 98 81 98 4 0 24 -27 44 -61z m366
-132 c19 -12 43 -39 54 -59 24 -46 11 -81 -40 -105 -34 -16 -36 -16 -63 3 -25
19 -92 118 -92 136 0 10 71 47 91 48 9 0 31 -10 50 -23z"/>
<path d="M8573 3421 c-10 -11 -69 -103 -130 -204 -124 -202 -133 -230 -87
-266 27 -21 58 -26 88 -15 9 3 39 44 67 90 28 46 53 84 57 84 4 0 48 -25 99
-56 90 -55 92 -56 102 -105 6 -28 11 -73 11 -100 0 -54 -9 -66 -100 -139 -35
-28 -51 -92 -31 -128 30 -56 113 -64 170 -16 70 58 99 175 78 313 l-8 53 45
-26 c24 -14 49 -26 55 -26 13 0 97 128 118 179 19 44 7 72 -40 94 -45 22 -80
10 -102 -33 -15 -29 -18 -30 -38 -17 -12 8 -76 47 -142 87 -66 40 -121 74
-122 74 -1 1 9 24 22 51 31 61 31 70 -1 100 -33 31 -86 33 -111 6z"/>
<path d="M1879 2700 c-143 -25 -296 -153 -355 -298 -30 -73 -32 -180 -5 -252
22 -57 115 -178 233 -302 72 -76 88 -88 116 -88 62 0 102 68 70 120 -15 24
-25 13 207 224 143 130 161 144 175 131 26 -23 83 -19 108 8 45 48 34 72 -108
226 -133 143 -191 192 -258 215 -53 19 -129 26 -183 16z m166 -204 c53 -24
141 -105 128 -116 -4 -3 -90 -82 -191 -174 -119 -110 -188 -166 -197 -162 -24
9 -93 123 -100 166 -17 101 93 247 221 294 55 21 82 19 139 -8z"/>
<path d="M8053 2663 c-17 -16 -108 -108 -202 -205 -189 -196 -197 -209 -143
-261 47 -45 75 -37 153 44 l68 71 171 -163 c93 -90 175 -166 181 -168 14 -4
185 164 205 201 19 36 18 42 -12 77 -38 45 -77 42 -130 -10 l-43 -42 -38 31
c-21 17 -76 69 -122 116 l-84 85 66 71 c76 80 85 113 42 155 -32 33 -73 32
-112 -2z"/>
<path d="M8457 2001 c-35 -23 -67 -65 -67 -89 0 -20 88 -112 117 -123 28 -10
51 1 83 38 38 43 38 60 -3 112 -55 69 -92 87 -130 62z"/>
<path d="M6129 1667 c-116 -39 -194 -108 -224 -196 -20 -59 -19 -90 5 -154 28
-76 79 -116 163 -132 20 -4 37 -9 37 -12 0 -2 -13 -21 -29 -41 -102 -131 -33
-318 134 -363 55 -15 169 -6 235 20 166 63 250 204 209 348 -22 82 -115 153
-198 153 -27 0 -27 1 11 55 45 64 51 150 15 221 -57 112 -204 154 -358 101z
m136 -131 c40 -17 75 -68 75 -109 0 -66 -70 -127 -145 -127 -139 0 -171 172
-42 230 51 24 67 24 112 6z m187 -406 c32 -35 38 -48 38 -85 0 -74 -70 -135
-156 -135 -51 0 -91 27 -116 78 -21 44 -21 44 -2 90 25 59 77 92 148 92 44 0
53 -4 88 -40z"/>
<path d="M3955 1630 c-102 -15 -145 -59 -145 -149 0 -30 6 -44 22 -55 34 -24
60 -20 114 19 54 39 101 45 157 21 91 -38 97 -136 14 -222 -33 -34 -91 -68
-263 -153 -239 -119 -278 -148 -272 -204 2 -18 13 -37 28 -48 31 -22 529 -179
546 -172 17 6 67 139 67 176 0 37 -25 57 -74 57 -28 0 -42 -6 -56 -25 l-18
-24 -108 35 c-60 20 -107 37 -105 39 1 1 72 33 157 69 208 90 270 136 321 237
27 52 37 153 20 205 -43 135 -223 221 -405 194z"/>
<path d="M5403 1482 c-99 -35 -166 -109 -201 -222 -24 -80 -21 -260 7 -363 60
-224 193 -339 374 -324 130 11 211 70 270 195 59 126 46 364 -27 518 -67 142
-155 206 -291 211 -59 3 -93 -1 -132 -15z m170 -160 c73 -49 116 -160 124
-322 6 -125 -5 -178 -50 -226 -43 -47 -97 -55 -147 -22 -105 70 -167 377 -101
505 40 79 112 106 174 65z"/>
<path d="M4654 1456 c-139 -65 -216 -208 -231 -431 -18 -276 103 -459 313
-473 186 -12 323 109 369 326 19 85 19 271 1 338 -19 71 -63 149 -107 188 -83
76 -243 100 -345 52z m216 -174 c49 -48 64 -101 63 -222 -1 -248 -112 -405
-234 -333 -98 58 -119 325 -38 491 35 73 74 102 133 102 31 0 45 -7 76 -38z"/>
</g>
</svg>
