<?xml version="1.0" standalone="no"?>
<!DOCTYPE svg PUBLIC "-//W3C//DTD SVG 20010904//EN"
 "http://www.w3.org/TR/2001/REC-SVG-20010904/DTD/svg10.dtd">
<svg version="1.0" xmlns="http://www.w3.org/2000/svg"
 width="700.000000pt" height="700.000000pt" viewBox="0 0 700.000000 700.000000"
 preserveAspectRatio="xMidYMid meet">
<metadata>
Created by potrace 1.11, written by Peter Selinger 2001-2013
</metadata>
<g transform="translate(0.000000,700.000000) scale(0.100000,-0.100000)"
fill="#000000" stroke="none">
<path d="M3285 6073 c-11 -3 -31 -13 -45 -23 -34 -23 -57 -35 -48 -25 10 11
-10 35 -25 29 -7 -2 -34 -6 -62 -8 -52 -3 -61 -12 -51 -52 6 -22 11 -25 35
-19 16 3 31 3 34 -2 3 -4 8 -42 11 -83 3 -41 9 -94 12 -117 5 -31 3 -41 -8
-40 -52 2 -59 -2 -55 -35 4 -37 1 -37 130 -24 l78 8 -3 35 c-2 33 -4 35 -35
31 -30 -4 -33 -1 -34 22 0 14 -2 36 -4 50 -15 102 -14 114 14 138 49 44 102
58 131 34 22 -18 27 -35 36 -122 3 -30 7 -67 8 -82 3 -26 0 -28 -30 -28 -32 0
-34 -2 -34 -36 l0 -35 98 7 c53 3 101 10 105 14 5 4 7 20 5 36 -3 26 -6 29
-35 26 -26 -3 -33 0 -34 15 -1 10 -3 32 -4 48 -2 17 -6 53 -9 81 -7 66 -18 93
-50 125 -33 33 -79 45 -131 32z"/>
<path d="M3738 6067 c-50 -9 -54 -17 -42 -64 5 -19 10 -20 37 -12 57 16 159
11 179 -9 5 -5 11 -21 14 -37 4 -25 3 -27 -18 -21 -13 4 -53 9 -90 13 -56 5
-73 2 -112 -17 -52 -25 -78 -64 -78 -118 0 -98 140 -160 243 -106 31 16 32 15
26 -5 -4 -18 1 -21 42 -26 25 -4 58 -8 72 -11 23 -4 27 -1 33 27 7 38 7 39
-30 43 -27 3 -29 6 -28 47 1 24 5 76 9 116 9 96 -3 133 -56 162 -46 26 -123
33 -201 18z m138 -208 c33 -9 44 -16 40 -26 -3 -8 -6 -19 -6 -23 0 -18 -90
-62 -126 -62 -37 0 -84 33 -84 59 0 16 28 48 50 56 25 9 79 8 126 -4z"/>
<path d="M4211 5973 c-16 -35 -14 -39 20 -53 22 -9 28 -17 23 -29 -3 -9 -10
-29 -16 -46 -5 -16 -13 -39 -18 -50 -4 -11 -16 -42 -25 -68 -13 -38 -21 -47
-34 -42 -42 18 -49 17 -59 -15 -9 -23 -8 -32 1 -35 7 -3 50 -18 96 -35 46 -17
85 -29 86 -28 1 2 7 17 13 35 10 30 9 32 -19 38 -16 4 -29 9 -29 12 0 3 15 46
33 94 l32 88 46 10 c57 13 100 2 118 -30 12 -22 10 -35 -21 -124 -25 -72 -38
-99 -49 -96 -50 13 -54 12 -65 -18 l-12 -29 97 -35 c87 -32 97 -34 109 -19 20
27 14 49 -17 60 l-30 11 25 68 c14 37 29 75 34 84 4 9 7 41 7 72 -2 47 -7 61
-31 86 -37 39 -84 54 -140 46 -38 -6 -44 -5 -43 10 2 12 -15 23 -60 39 l-61
23 -11 -24z"/>
<path d="M2170 5713 c-29 -16 -72 -51 -97 -80 l-44 -51 31 -22 31 -22 17 23
c50 73 129 118 166 94 34 -20 28 -30 -29 -60 -127 -64 -171 -182 -94 -254 71
-66 193 -31 245 71 15 28 18 30 28 15 11 -14 19 -12 74 22 65 40 65 39 26 90
-2 2 -15 -4 -29 -13 -14 -9 -30 -14 -34 -11 -5 3 -30 40 -55 83 -55 91 -63
103 -96 125 -35 24 -80 21 -140 -10z m180 -168 c31 -37 -47 -165 -100 -165
-39 0 -60 18 -60 53 0 38 31 72 95 106 47 25 49 25 65 6z"/>
<path d="M4813 5710 c-115 -25 -189 -155 -153 -265 15 -46 72 -104 126 -130
146 -70 310 45 291 205 -14 120 -147 215 -264 190z m133 -105 c43 -33 56 -59
56 -107 -1 -41 -35 -98 -72 -118 -56 -30 -148 0 -185 62 -34 59 -13 141 48
179 41 26 107 19 153 -16z"/>
<path d="M5331 5551 l-21 -30 21 -14 c29 -21 22 -30 -129 -179 l-129 -127 -23
25 -24 24 -23 -26 -23 -27 47 -48 c31 -33 50 -46 57 -39 16 16 23 12 30 -22
22 -110 163 -170 274 -117 110 53 137 211 54 306 -22 24 -90 63 -112 63 -8 0
18 33 58 73 l73 73 -38 35 c-71 64 -69 63 -92 30z m0 -291 c90 -25 115 -129
48 -198 -45 -46 -113 -50 -161 -9 -29 25 -42 58 -40 105 2 41 23 71 65 94 38
20 42 21 88 8z"/>
<path d="M1816 5445 c-39 -36 -46 -47 -37 -59 10 -12 6 -15 -19 -21 -38 -8
-95 -57 -117 -98 -20 -40 -20 -125 1 -165 48 -94 161 -130 254 -83 43 22 92
83 92 113 0 10 4 18 9 18 15 0 40 -46 36 -66 -2 -10 -4 -23 -4 -27 -1 -5 -24
-32 -52 -62 l-51 -54 20 -21 c26 -28 44 -19 103 50 51 60 57 73 58 120 1 54
-15 76 -176 241 l-64 65 21 24 c11 13 20 26 20 30 0 7 -34 40 -41 40 -2 0 -26
-21 -53 -45z m66 -171 c58 -52 55 -151 -6 -183 -58 -31 -143 -5 -167 50 -17
42 -3 97 34 132 27 25 37 28 75 24 23 -2 52 -13 64 -23z"/>
<path d="M5666 4985 c-10 -8 -24 -16 -30 -18 -6 -2 0 -19 15 -43 l27 -40 -32
-21 c-17 -12 -63 -41 -103 -67 l-72 -45 -26 45 -26 45 -29 -21 -29 -21 29 -47
c116 -184 138 -217 151 -219 8 -2 22 4 32 11 18 14 17 18 -21 82 l-41 67 67
39 c54 32 73 38 99 33 87 -16 145 -64 124 -102 -8 -17 -4 -21 34 -35 49 -18
55 -16 55 22 0 68 -54 135 -130 161 l-33 12 23 17 23 17 -36 59 c-20 33 -40
64 -44 71 -6 8 -13 8 -27 -2z"/>
<path d="M1394 4971 c-46 -21 -84 -83 -84 -138 0 -25 -4 -30 -17 -27 -13 3
-28 -10 -50 -46 -18 -27 -33 -54 -33 -59 0 -5 11 -16 25 -25 23 -15 25 -15 41
9 9 14 20 25 25 25 5 0 52 -28 104 -63 l94 -63 -19 -30 -19 -30 29 -17 29 -18
57 86 c32 47 55 87 53 88 -2 2 -16 10 -30 19 -25 16 -27 16 -39 -8 -8 -13 -17
-24 -22 -24 -5 0 -43 23 -85 51 l-75 51 4 59 c3 38 11 65 23 79 34 37 57 29
233 -86 2 -2 -4 -16 -14 -33 -18 -30 -18 -31 1 -46 11 -8 25 -15 31 -15 6 0
36 38 67 84 l56 84 -24 16 c-32 21 -38 20 -55 -9 l-15 -25 -60 41 c-127 85
-169 98 -231 70z"/>
<path d="M2402 4639 l3 -202 186 0 185 -1 0 -1025 -1 -1026 -187 0 -188 0 0
-201 0 -202 753 3 c758 2 806 4 967 40 336 77 577 269 733 586 74 151 134 343
152 485 4 27 8 60 11 74 23 136 23 425 0 575 -76 496 -338 873 -701 1011 -38
14 -81 28 -95 30 -14 3 -41 9 -60 14 -128 32 -249 37 -1023 39 l-737 2 2 -202z
m1578 -217 c99 -17 159 -38 225 -77 174 -103 324 -368 360 -635 2 -19 7 -55
10 -80 13 -98 8 -328 -11 -455 -28 -193 -92 -366 -185 -500 -63 -92 -170 -177
-281 -223 -131 -55 -216 -64 -573 -66 l-320 -1 -1 1020 c-1 561 1 1023 2 1027
6 11 704 2 774 -10z"/>
<path d="M5928 4518 c-30 -10 -31 -12 -19 -43 7 -16 -11 -40 -97 -133 -69 -74
-110 -111 -121 -108 -9 2 -32 7 -52 10 -34 6 -38 11 -58 66 -23 62 -31 68 -67
47 -21 -12 -21 -13 24 -137 25 -69 46 -126 47 -128 1 -1 16 3 34 9 21 8 30 16
27 25 -3 8 -9 21 -12 29 -5 13 -1 15 22 11 16 -3 47 -8 69 -11 22 -4 59 -11
83 -16 23 -5 59 -12 80 -15 20 -4 42 -7 47 -8 6 -2 32 -6 58 -11 38 -6 51 -13
60 -32 8 -18 16 -23 31 -19 12 3 24 6 29 6 13 0 8 30 -19 105 l-26 73 -33 -10
c-25 -8 -31 -15 -27 -30 4 -18 1 -20 -39 -14 -24 3 -73 12 -109 19 l-65 14 60
63 c33 36 66 71 73 78 11 12 15 12 25 -2 9 -13 20 -16 40 -11 15 4 27 12 27
18 0 17 -54 167 -60 166 -3 0 -17 -5 -32 -11z"/>
<path d="M1164 4500 c-152 -69 -166 -289 -23 -369 150 -85 306 27 311 225 3
103 0 114 -26 114 -48 0 -51 -6 -48 -76 7 -121 -33 -196 -111 -214 -20 -4 -38
-6 -40 -3 -3 2 21 72 53 156 l58 152 -23 12 c-40 22 -108 23 -151 3z m63 -112
c-11 -29 -30 -78 -41 -109 -12 -31 -25 -58 -31 -60 -20 -8 -47 69 -40 111 9
54 61 110 103 110 l30 0 -21 -52z"/>
<path d="M1257 3983 c-4 -3 -7 -16 -7 -28 0 -31 -5 -33 -58 -23 -153 29 -225
17 -262 -44 -21 -35 -28 -132 -10 -143 15 -9 12 -35 -4 -35 -9 0 -17 -16 -21
-42 -3 -24 -8 -55 -11 -69 -5 -24 -1 -27 28 -32 39 -6 36 -8 42 27 3 16 6 30
8 31 2 2 26 -1 53 -5 28 -4 73 -11 100 -14 82 -11 85 -13 79 -50 -5 -32 -3
-34 30 -38 34 -4 34 -3 41 42 3 25 9 61 12 80 11 75 11 80 -8 82 -45 4 -54 2
-55 -9 -1 -7 -2 -20 -3 -29 -1 -14 -9 -16 -53 -10 -29 3 -62 8 -73 10 -11 3
-30 5 -43 5 -27 1 -61 66 -62 118 0 40 40 75 78 68 14 -2 53 -7 86 -11 81 -8
94 -16 88 -53 -2 -17 0 -31 4 -32 5 0 19 -2 31 -5 28 -5 31 0 38 66 4 30 10
73 14 96 7 38 6 43 -13 48 -28 8 -41 7 -49 -1z"/>
<path d="M5958 3930 c-127 -22 -194 -166 -129 -276 27 -45 27 -44 -8 -44 -51
0 -73 35 -85 133 -7 54 -9 58 -29 53 -12 -3 -28 -6 -35 -6 -10 0 -12 -11 -7
-47 23 -176 58 -210 204 -199 48 3 96 8 108 10 12 3 51 8 87 11 l66 7 0 -31
c0 -29 2 -31 36 -31 l36 0 -5 58 c-4 31 -6 63 -7 70 0 6 -10 12 -21 12 -17 0
-19 3 -10 14 16 19 21 95 9 137 -25 87 -118 144 -210 129z m100 -96 c13 -9 30
-30 37 -47 25 -61 -5 -123 -73 -147 -37 -13 -45 -12 -77 3 -38 18 -75 69 -70
95 2 10 4 25 4 35 1 22 57 74 85 80 29 6 67 -2 94 -19z"/>
<path d="M1167 3454 c-16 -8 -27 -18 -25 -22 59 -114 68 -141 68 -192 0 -62
-16 -92 -61 -115 l-29 -16 -1 33 c0 18 -2 44 -4 58 -2 14 -6 70 -10 125 -4 55
-9 102 -11 105 -13 13 -59 8 -101 -10 -163 -70 -137 -333 38 -380 75 -20 145
-2 196 50 52 54 69 128 49 220 -9 39 -65 160 -75 160 -3 -1 -19 -8 -34 -16z
m-130 -131 c0 -16 4 -70 8 -120 4 -53 4 -93 -1 -93 -36 2 -97 95 -89 136 2 10
4 26 4 35 1 24 40 69 60 69 12 0 18 -8 18 -27z"/>
<path d="M5917 3366 c-80 -39 -124 -146 -92 -224 19 -44 20 -41 -12 -36 -51 9
-66 39 -61 126 l4 76 -32 4 c-39 5 -40 2 -43 -98 -4 -130 37 -175 172 -188 72
-7 166 -18 192 -21 11 -1 27 -3 36 -4 11 -1 16 -11 15 -33 -1 -30 2 -33 32
-36 27 -3 32 0 32 17 0 12 1 23 2 26 0 2 4 25 8 50 6 40 5 45 -12 45 -19 0
-19 1 1 29 68 96 9 249 -107 281 -51 13 -88 10 -135 -14z m152 -81 c62 -53 61
-138 -3 -181 -57 -37 -155 -6 -172 55 -16 57 1 102 49 131 44 27 89 25 126 -5z"/>
<path d="M1279 2909 l-27 -10 20 -65 c11 -36 18 -67 16 -69 -2 -1 -102 -33
-223 -70 -121 -37 -221 -68 -223 -70 -2 -1 14 -46 34 -99 30 -78 40 -96 53
-90 9 3 24 8 33 11 16 5 15 10 -7 68 l-23 62 106 33 c59 18 141 43 182 56 41
13 80 24 86 24 6 0 19 -28 29 -62 10 -35 19 -64 20 -66 5 -8 65 22 62 32 -2 6
-26 82 -52 169 -27 86 -51 157 -54 156 -3 0 -18 -5 -32 -10z"/>
<path d="M5814 2827 c-68 -27 -122 -91 -140 -169 -9 -40 -6 -180 4 -190 6 -6
24 -7 40 -3 l31 6 -6 64 c-10 123 29 207 104 221 18 4 36 4 39 2 2 -3 -18 -71
-46 -151 -27 -80 -50 -150 -50 -155 0 -15 76 -32 116 -26 92 14 155 81 169
177 13 86 -38 182 -112 213 -46 20 -113 24 -149 11z m170 -122 c15 -23 22 -63
18 -111 -3 -32 -66 -94 -96 -94 -14 0 -26 3 -26 6 0 16 75 224 81 224 4 0 14
-11 23 -25z"/>
<path d="M1412 2465 l-20 -25 30 -32 c32 -34 48 -67 48 -97 0 -22 -47 -74 -59
-66 -5 3 -30 41 -55 85 -26 44 -50 80 -54 80 -19 0 -101 -61 -123 -91 -34 -48
-31 -110 7 -150 16 -17 38 -35 50 -39 16 -7 19 -15 16 -44 -5 -41 17 -82 72
-135 l36 -35 25 24 25 24 -34 35 c-18 20 -39 47 -46 60 -11 22 -10 27 14 48
34 29 42 29 50 1 21 -77 124 -122 196 -85 32 16 68 70 65 99 -1 13 -3 31 -4
40 -2 25 -48 76 -84 93 -30 14 -32 18 -29 59 2 26 -2 55 -11 73 -16 30 -79
103 -89 103 -4 0 -15 -11 -26 -25z m-94 -207 c17 -29 27 -57 22 -61 -14 -15
-70 -10 -90 8 -24 22 -26 53 -4 83 23 34 39 27 72 -30z m249 -90 c31 -40 18
-74 -32 -84 -34 -6 -63 14 -83 59 -10 24 -10 29 6 34 9 4 23 13 30 20 11 11
18 10 41 -1 15 -8 32 -21 38 -28z"/>
<path d="M5567 2373 c-66 -105 -148 -245 -145 -248 14 -12 50 -25 57 -21 4 3
23 30 42 61 18 30 36 55 40 55 4 0 35 -16 68 -36 66 -39 81 -67 81 -151 0 -44
-25 -83 -54 -83 -11 0 -13 -10 -9 -42 3 -24 7 -45 10 -47 11 -14 75 34 98 73
22 38 26 56 23 101 -2 46 0 54 12 49 28 -12 42 -9 54 11 6 11 23 39 39 63 15
24 27 45 27 47 0 3 -13 11 -29 20 -29 15 -30 14 -51 -20 -12 -19 -26 -35 -30
-35 -8 0 -186 104 -199 116 -2 2 8 23 22 47 l26 43 -29 18 -29 17 -24 -38z"/>
<path d="M5199 1862 c-154 -160 -146 -148 -124 -172 10 -11 21 -20 26 -20 4 0
26 20 50 45 24 25 46 45 50 45 4 0 56 -47 116 -104 l108 -105 68 67 67 67 -25
24 -25 25 -43 -42 -43 -42 -84 85 -84 85 39 42 c22 23 45 46 50 50 6 4 0 17
-16 33 l-25 26 -105 -109z"/>
<path d="M1654 1950 c-85 -26 -183 -123 -205 -202 -24 -89 -7 -124 140 -285
l73 -81 25 24 25 25 -21 23 -21 23 103 96 c57 53 116 106 131 118 l27 21 21
-22 21 -22 24 25 25 25 -51 54 c-28 30 -66 70 -83 90 -78 84 -153 112 -234 88z
m178 -128 c20 -20 37 -42 38 -49 0 -9 -132 -137 -224 -217 l-29 -24 -44 50
c-24 28 -48 60 -52 72 -23 60 24 146 108 198 75 47 136 38 203 -30z"/>
<path d="M5505 1529 l-28 -32 36 -33 c20 -19 40 -34 44 -34 5 0 21 13 36 28
l27 28 -39 37 c-22 20 -42 37 -44 37 -2 0 -16 -14 -32 -31z"/>
<path d="M4093 1334 c-25 -14 -54 -44 -69 -69 -23 -40 -24 -48 -14 -80 13 -39
17 -40 55 -23 19 9 25 17 21 32 -15 58 75 113 137 85 34 -15 60 -70 51 -106
-4 -15 -40 -95 -81 -177 -68 -137 -73 -152 -62 -178 6 -15 14 -28 17 -28 10 0
307 112 314 119 3 3 -5 36 -19 73 l-25 66 -31 -10 c-18 -6 -33 -12 -35 -13 -1
-1 5 -18 13 -39 15 -35 15 -37 -7 -45 -13 -5 -47 -18 -75 -30 -29 -11 -53 -19
-53 -16 0 2 25 54 55 115 30 62 57 128 61 148 9 46 -10 120 -39 151 -52 56
-145 67 -214 25z"/>
<path d="M2867 1326 c-48 -18 -64 -31 -72 -63 -7 -30 -1 -38 37 -47 21 -5 28
-2 33 13 7 22 48 38 87 33 37 -5 78 -48 78 -84 0 -61 -25 -86 -138 -141 -59
-29 -133 -63 -164 -76 -32 -13 -58 -29 -58 -35 0 -6 -3 -21 -6 -33 -5 -20 5
-25 156 -73 89 -28 164 -49 166 -47 8 7 44 116 44 131 0 13 -47 29 -62 20 -3
-2 -9 -18 -13 -34 -8 -36 -8 -36 -98 -8 l-70 21 117 58 c132 65 139 69 177
122 53 73 22 189 -62 233 -43 22 -108 26 -152 10z"/>
<path d="M3687 1218 c-48 -29 -87 -57 -87 -63 0 -5 8 -20 18 -32 l17 -22 55
34 c30 18 55 33 56 32 1 -1 5 -27 9 -57 3 -30 8 -66 10 -80 2 -14 6 -47 10
-75 4 -27 10 -71 15 -97 4 -26 4 -51 1 -57 -5 -8 -58 -18 -113 -20 -12 -1 -18
-9 -18 -23 0 -36 14 -49 46 -44 16 3 56 8 89 12 33 5 62 8 65 9 8 2 134 19
145 19 6 1 9 9 9 19 -4 52 0 49 -73 42 l-69 -7 -11 69 c-6 37 -13 87 -16 110
-3 23 -8 55 -10 70 -2 15 -9 70 -16 121 -9 75 -15 92 -28 92 -10 0 -56 -24
-104 -52z"/>
<path d="M3305 1240 c-70 -29 -112 -128 -119 -280 -6 -118 34 -216 98 -239 74
-28 144 -6 185 56 38 56 55 133 55 248 1 78 -3 97 -24 139 -16 31 -37 55 -60
67 -36 20 -100 24 -135 9z m116 -86 c22 -23 24 -34 25 -127 2 -109 -16 -189
-52 -228 -26 -29 -81 -22 -107 13 -33 45 -29 225 7 312 25 60 85 75 127 30z"/>
</g>
</svg>
